<svg viewBox="0 0 37.8465 27.8461" xmlns="http://www.w3.org/2000/svg">
  <path d="M17.6818 23.262C17.6818 23.262 19.184 22.8692 19.1695 20.8135 19.1605 19.551 18.0022 18.1657 16.1855 18.4808 14.1731 18.8299 12.52 20.8662 13.1682 23.7771 13.8242 26.7231 16.8717 28.1804 19.2721 27.7813 23.3172 27.1087 24.8159 24.8976 25.0373 21.5272 25.1809 19.3424 24.3892 18.0518 23.2741 17.0186 21.4881 15.3639 18.9233 13.923 18.9233 13.923 18.9233 13.923 16.3584 12.4821 14.5724 10.8274 13.4573 9.7943 12.6656 8.5037 12.8092 6.3188 13.0306 2.9485 14.5293 0.7374 18.5744 0.0648 20.9748-0.3343 24.0223 1.1229 24.6783 4.0689 25.3265 6.9799 23.6734 9.0162 21.661 9.3653 19.8443 9.6804 18.6859 8.295 18.677 7.0325 18.6625 4.9769 20.1647 4.5841 20.1647 4.5841 M8.313 13.923L5.2041 6.2118M29.5335 13.923L32.6424 6.2118 M8.313 13.923L5.2041 21.6343M29.5335 13.923L32.6424 21.6343 M8.313 13.923H0M29.5335 13.923H37.8465 M8.313 13.923L1.4986 9.1618M29.5335 13.923L36.3479 9.1618 M1.4986 18.6843L8.313 13.923M36.3479 18.6843L29.5335 13.923"
        fill="none" stroke="#000000" stroke-width="0.4" stroke-linecap="round" stroke-linejoin="round" />
  <path d="M4.9169 2.2245C4.9169 2.672 4.5541 3.0348 4.1066 3.0348 3.6591 3.0348 3.2963 2.672 3.2963 2.2245 3.2963 1.777 3.6591 1.4142 4.1066 1.4142 4.5541 1.4142 4.9169 1.777 4.9169 2.2245ZM4.9169 25.6215C4.9169 25.174 4.5541 24.8112 4.1066 24.8112 3.6591 24.8112 3.2963 25.174 3.2963 25.6215 3.2963 26.069 3.6591 26.4318 4.1066 26.4318 4.5541 26.4318 4.9169 26.069 4.9169 25.6215ZM32.9296 2.2245C32.9296 2.672 33.2924 3.0348 33.7399 3.0348 34.1874 3.0348 34.5502 2.672 34.5502 2.2245 34.5502 1.777 34.1874 1.4142 33.7399 1.4142 33.2924 1.4142 32.9296 1.777 32.9296 2.2245ZM32.9296 25.6215C32.9296 25.174 33.2924 24.8112 33.7399 24.8112 34.1874 24.8112 34.5502 25.174 34.5502 25.6215 34.5502 26.069 34.1874 26.4318 33.7399 26.4318 33.2924 26.4318 32.9296 26.069 32.9296 25.6215Z"
        fill="#000000" stroke="#000000" stroke-width="0.4" stroke-linecap="round" stroke-linejoin="round" />
</svg>
