<svg viewBox="0 0 34.2066 27.8461" xmlns="http://www.w3.org/2000/svg">
  <path d="M15.8619 23.262C15.8619 23.262 17.3641 22.8692 17.3496 20.8135 17.3407 19.551 16.1823 18.1657 14.3655 18.4808 12.3531 18.8299 10.7001 20.8662 11.3483 23.7771 12.0042 26.7231 15.0517 28.1804 17.4521 27.7813 21.4973 27.1087 22.9959 24.8976 23.2174 21.5272 23.361 19.3424 22.5693 18.0518 21.4541 17.0186 19.6681 15.3639 17.1033 13.923 17.1033 13.923 17.1033 13.923 14.5385 12.4821 12.7525 10.8274 11.6373 9.7943 10.8457 8.5037 10.9892 6.3188 11.2107 2.9485 12.7093 0.7374 16.7545 0.0648 19.1549-0.3343 22.2024 1.1229 22.8584 4.0689 23.5065 6.9799 21.8535 9.0162 19.8411 9.3653 18.0244 9.6804 16.8659 8.295 16.857 7.0325 16.8426 4.9769 18.3447 4.5841 18.3447 4.5841 M0 13.923H8.7147M34.2066 13.923H25.4919 M2.8029 7.5337L5.9118 10.6426M2.8029 20.3123L5.9118 17.2035M31.4037 7.5337L28.2948 10.6426M31.4037 20.3123L28.2948 17.2035"
        fill="none" stroke="#000000" stroke-width="0.4" stroke-linecap="round" stroke-linejoin="round" />
</svg>
